<?xml version="1.0" encoding="UTF-8"?>
<svg width="42px" height="50px" viewBox="0 0 42 50" version="1.1" xmlns="http://www.w3.org/2000/svg" xmlns:xlink="http://www.w3.org/1999/xlink">
    <g id="Page-1" stroke="none" stroke-width="1" fill="none" fill-rule="evenodd">
        <g id="Group" fill="#1A1919">
            <path d="M11.858,33.5495816 C14.838,34.5285816 17.738,35.7315816 20.548,37.1175816 C21.436,37.6535816 22.888,38.1895816 22.9,39.4695816 C22.639,41.9795816 18.862,42.3455816 19.281,45.1135816 C19.386,46.0825816 19.934,47.0615816 20.875,47.4925816 C21.175,47.6625816 21.554,47.6755816 21.894,47.7285816 C22.326,47.8975816 22.874,47.2965816 23.058,47.9365816 C23.096,48.2115816 22.757,48.2525816 22.6,48.4075816 C21.188,49.2705816 19.164,50.2765816 17.582,49.0735816 C16.693,48.4345816 16.288,47.4545816 16.262,46.3825816 C16.288,44.6435816 17.974,43.5845816 19.149,42.4085816 C19.66,41.9005816 20.065,41.2605816 19.843,40.5155816 C19.397,39.6005816 18.392,39.3125816 17.622,38.8295816 C13.623,36.8165816 9.454,35.2235816 5.089,34.0855816 C4.043,33.8375816 3.024,33.4845816 1.861,33.5895816 C1.535,33.6805816 1.248,33.9295816 1.039,34.2035816 C0.947,34.2035816 0.868,34.1505816 0.79,34.0995816 C0.606,33.8115816 0.79,33.4585816 0.829,33.1455816 C1.012,32.3735816 1.718,31.6145816 2.514,31.4725816 C2.762,31.4065816 3.024,31.3945816 3.286,31.3545816 C6.343,31.6035816 9.049,32.6995816 11.858,33.5495816" id="eagle-bottom"></path>
            <path d="M39.588,5.69058157 C39.654,6.98358157 38.713,7.88558157 37.824,8.74758157 L34.373,11.7915816 C32.95,12.9815816 31.512,14.1965816 30.1,15.4115816 L23.515,20.9795816 C22.429,21.9455816 22.299,23.3315816 21.985,24.6375816 C21.894,25.1725816 21.79,25.7095816 21.737,26.2585816 C21.751,26.8065816 22.39,27.1065816 22.273,27.6945816 C21.907,28.4665816 21.358,29.1595816 21.045,29.9435816 C21.083,30.1265816 21.175,30.3355816 21.358,30.3985816 C21.737,30.5705816 22.273,30.4135816 22.509,30.8465816 C22.561,31.1465816 22.299,31.5625816 22.612,31.7985816 C22.757,32.0475816 23.254,31.6945816 23.161,32.1005816 C23.031,32.2045816 23.005,32.3605816 23.044,32.5185816 C23.214,32.7265816 23.593,32.8965816 23.476,33.2355816 C23.318,33.5765816 23.436,33.9805816 23.606,34.2545816 C24.43,35.2745816 25.893,34.7785816 27.03,34.7525816 C27.945,34.7785816 28.951,34.7525816 29.461,35.6135816 C29.734,36.0715816 29.669,36.7645816 29.461,37.2335816 C28.505,38.9075816 26.52,39.1685816 25.396,40.7115816 C24.926,41.3765816 25.082,42.3965816 25.423,43.0765816 C25.919,43.8475816 26.729,44.1875816 27.657,44.0425816 L28.546,43.7945816 C28.649,43.8345816 28.702,43.9365816 28.754,44.0185816 C28.794,44.1985816 28.572,44.3045816 28.467,44.3955816 C27.278,45.2595816 26.05,46.0685816 24.481,45.9905816 C23.54,45.8325816 22.574,45.0105816 22.326,44.0565816 C22.051,43.1935816 22.181,42.1355816 22.769,41.4425816 C23.789,40.3315816 25.082,39.7455816 26.062,38.5945816 C26.376,38.1485816 26.468,37.4835816 26.194,36.9995816 C25.344,35.5225816 23.462,36.0985816 22.038,36.1375816 C21.462,36.0985816 20.823,35.8235816 20.64,35.2235816 C20.483,34.7525816 20.835,34.2165816 20.522,33.8115816 C20.287,33.6925816 19.96,33.5495816 19.894,33.2625816 C19.816,33.0405816 20.248,32.8965816 19.987,32.7535816 C19.829,32.7535816 19.686,32.7135816 19.555,32.6075816 C19.477,32.4905816 19.372,32.3475816 19.438,32.1775816 C19.516,31.8905816 19.855,31.6945816 19.765,31.3545816 C19.307,30.7795816 18.522,31.6145816 18.118,30.8845816 C17.843,30.2445816 18.496,29.8125816 18.718,29.2895816 C19.033,28.7405816 19.724,28.2445816 19.45,27.5515816 C19.281,27.2375816 19.006,26.9775816 19.033,26.5985816 C18.993,26.2315816 19.097,25.9315816 19.123,25.5925816 C19.281,24.3385816 19.594,23.1485816 19.829,21.9195816 C20.143,20.6135816 21.202,19.5165816 22.299,18.6275816 L25.161,16.2085816 L31.434,10.9045816 L35.929,6.94358157 C36.896,5.98958157 37.954,5.04858157 37.89,3.65158157 C37.954,3.50858157 38.098,3.61158157 38.189,3.65158157 C38.921,4.10858157 39.496,4.85358157 39.588,5.69058157" id="face-two"></path>
            <path d="M37.419,12.1305816 C37.929,13.0605816 37.929,14.4315816 37.235,15.2685816 C36.7,15.9475816 36.073,16.4835816 35.433,17.0975816 L28.219,23.1075816 C27.135,23.9455816 26.755,25.1475816 26.834,26.4805816 C26.834,26.8855816 27.199,27.1605816 27.043,27.5785816 C26.873,27.9575816 26.703,28.3485816 26.494,28.7155816 C26.468,28.8455816 26.468,29.0165816 26.572,29.1205816 C26.846,29.3285816 27.473,29.1595816 27.421,29.7075816 C27.409,29.8645816 27.37,30.0225816 27.448,30.1525816 C27.565,30.4925816 28.127,30.0465816 27.997,30.5305816 C27.905,30.6225816 27.905,30.7675816 27.931,30.8845816 C28.114,31.1855816 28.533,31.0155816 28.676,31.3545816 C28.715,31.7335816 28.794,32.2045816 29.226,32.3205816 C29.957,32.4905816 30.585,32.1635816 31.212,31.9435816 C32.571,31.2885816 34.086,30.9365816 35.732,31.0795816 C36.961,31.2625816 38.045,31.8395816 39.286,32.0215816 C40.123,32.2045816 41.078,32.0595816 41.901,32.0215816 C42.006,32.0725816 41.927,32.1775816 41.888,32.2435816 C40.541,33.8515816 38.803,35.2615816 36.648,34.7525816 C35.21,34.4785816 34.06,33.4975816 32.649,33.1325816 C30.558,32.8165816 29.042,34.2545816 26.963,33.9295816 C26.546,33.8755816 26.194,33.5895816 25.984,33.2105816 C25.788,32.8575816 25.971,32.4125816 25.945,32.0345816 C25.801,31.7725816 25.24,31.8115816 25.384,31.3815816 C25.396,31.2885816 25.579,31.2115816 25.435,31.1195816 C25.291,31.1065816 25.148,31.1065816 25.03,31.0015816 C24.729,30.7135816 25.24,30.2045816 24.795,29.9945816 C24.377,29.9695816 23.815,30.1125816 23.632,29.6305816 C23.554,29.2895816 23.763,29.0165816 23.906,28.7405816 C24.102,28.3235816 24.533,27.9835816 24.481,27.4595816 C24.377,27.1605816 24.142,26.9365816 24.128,26.6105816 C24.377,24.7815816 24.351,22.7945816 26.089,21.6195816 L33.12,15.6995816 C34.321,14.6405816 35.602,13.7265816 36.713,12.5115816 C36.883,12.3025816 36.975,12.0405816 37.157,11.8445816 C37.314,11.8575816 37.353,12.0275816 37.419,12.1305816" id="face-one"></path>
            <path d="M35.942,1.69058157 C36.243,2.99858157 35.549,4.05658157 34.766,4.99658157 L33.55,6.19958157 L21.567,16.2885816 C20.417,17.3975816 18.862,18.1945816 18.13,19.6455816 C17.385,21.5015816 16.98,23.5015816 16.72,25.5525816 C16.536,27.0285816 15.909,28.4385816 14.55,29.3165816 C13.492,30.1915816 12.08,30.1915816 10.656,30.1645816 L5.821,30.2045816 C5.482,30.2555816 5.128,30.3885816 4.933,30.7275816 C4.814,30.8715816 4.88,31.2625816 4.567,31.1575816 C4.475,31.1335816 4.345,31.1065816 4.357,30.9615816 C4.318,29.8645816 4.41,28.7155816 5.35,27.9835816 C5.86,27.5915816 6.54,27.5655816 7.193,27.4995816 C9.049,27.5385816 10.865,27.4465816 12.707,27.4595816 C13.126,27.4215816 13.518,27.2375816 13.739,26.8595816 C14.04,26.0625816 14.002,25.1355816 14.197,24.2985816 C14.498,22.3765816 14.915,20.4945816 15.608,18.7305816 C15.935,17.9475816 16.523,17.2285816 17.228,16.6275816 L21.424,13.1125816 L24.469,10.5235816 L29.265,6.46058157 C31.276,4.72258157 34.007,2.80258157 34.348,0.0975815737 C34.426,-0.100418426 34.623,0.0575815737 34.74,0.0975815737 C35.314,0.449581574 35.863,1.02458157 35.942,1.69058157" id="eagle-top"></path>
        </g>
    </g>
</svg>
